<svg xmlns="http://www.w3.org/2000/svg" viewBox="0 0 1000 1100">
  <!-- Interfaces -->
  <rect x="80" y="50" width="200" height="150" fill="#E8F4FF" stroke="#0066CC" stroke-width="2"/>
  <text x="180" y="80" text-anchor="middle" font-weight="bold" font-family="Arial">«interface»</text>
  <text x="180" y="100" text-anchor="middle" font-weight="bold" font-family="Arial">IBattleable</text>
  <line x1="80" y1="110" x2="280" y2="110" stroke="#0066CC" stroke-width="1"/>
  <text x="85" y="130" font-family="Arial" font-size="12">+ takeDamage(damage: int): void</text>
  <text x="85" y="145" font-family="Arial" font-size="12">+ isFainted(): boolean</text>
  <text x="85" y="160" font-family="Arial" font-size="12">+ selectMove(opponents: List&lt;IBattleable&gt;): Move</text>
  <text x="85" y="175" font-family="Arial" font-size="12">+ getStats(): PokemonStats</text>
  <text x="85" y="190" font-family="Arial" font-size="12">+ applyStatusEffect(effect: StatusEffect): void</text>
  
  <rect x="400" y="50" width="200" height="150" fill="#E8F4FF" stroke="#0066CC" stroke-width="2"/>
  <text x="500" y="80" text-anchor="middle" font-weight="bold" font-family="Arial">«interface»</text>
  <text x="500" y="100" text-anchor="middle" font-weight="bold" font-family="Arial">IMove</text>
  <line x1="400" y1="110" x2="600" y2="110" stroke="#0066CC" stroke-width="1"/>
  <text x="405" y="130" font-family="Arial" font-size="12">+ execute(user: IBattleable, target: IBattleable): int</text>
  <text x="405" y="145" font-family="Arial" font-size="12">+ getName(): String</text>
  <text x="405" y="160" font-family="Arial" font-size="12">+ canUse(): boolean</text>
  <text x="405" y="175" font-family="Arial" font-size="12">+ getType(): Type</text>
  <text x="405" y="190" font-family="Arial" font-size="12">+ getDescription(): String</text>
  
  <rect x="720" y="50" width="280" height="150" fill="#E8F4FF" stroke="#0066CC" stroke-width="2"/>
  <text x="860" y="80" text-anchor="middle" font-weight="bold" font-family="Arial">«interface»</text>
  <text x="860" y="100" text-anchor="middle" font-weight="bold" font-family="Arial">IBattleSystem</text>
  <line x1="720" y1="110" x2="1000" y2="110" stroke="#0066CC" stroke-width="1"/>
  <text x="725" y="130" font-family="Arial" font-size="12">+ startBattle(player: Trainer, cpu: Trainer): void</text>
  <text x="725" y="145" font-family="Arial" font-size="12">+ executeRound(pMove: Move, cMove: Move): BattleResult</text>
  <text x="725" y="160" font-family="Arial" font-size="12">+ isBattleOver(): boolean</text>
  <text x="725" y="175" font-family="Arial" font-size="12">+ getWinner(): Trainer</text>
  <text x="725" y="190" font-family="Arial" font-size="12">+ switchPokemon(trainer: Trainer, position: int): boolean</text>
  
  <rect x="80" y="230" width="200" height="110" fill="#E8F4FF" stroke="#0066CC" stroke-width="2"/>
  <text x="180" y="260" text-anchor="middle" font-weight="bold" font-family="Arial">«interface»</text>
  <text x="180" y="280" text-anchor="middle" font-weight="bold" font-family="Arial">IAbility</text>
  <line x1="80" y1="290" x2="280" y2="290" stroke="#0066CC" stroke-width="1"/>
  <text x="85" y="310" font-family="Arial" font-size="12">+ activate(pokemon: IBattleable): void</text>
  <text x="85" y="325" font-family="Arial" font-size="12">+ getDescription(): String</text>
  
  <rect x="800" y="230" width="200" height="110" fill="#E8F4FF" stroke="#0066CC" stroke-width="2"/>
  <text x="900" y="260" text-anchor="middle" font-weight="bold" font-family="Arial">«interface»</text>
  <text x="900" y="280" text-anchor="middle" font-weight="bold" font-family="Arial">ITypeResolver</text>
  <line x1="800" y1="290" x2="1000" y2="290" stroke="#0066CC" stroke-width="1"/>
  <text x="805" y="310" font-family="Arial" font-size="12">+ getEffectiveness(atk: Type, def: Type): double</text>
  <text x="805" y="325" font-family="Arial" font-size="12">+ getMultiplier(atk: Type, def1: Type, def2: Type): double</text>
  
  <!-- Enum -->
  <rect x="310" y="230" width="150" height="70" fill="#E6F2E6" stroke="#006600" stroke-width="2"/>
  <text x="385" y="255" text-anchor="middle" font-weight="bold" font-family="Arial">«enumeration»</text>
  <text x="385" y="275" text-anchor="middle" font-weight="bold" font-family="Arial">Type</text>
  <line x1="310" y1="285" x2="460" y2="285" stroke="#006600" stroke-width="1"/>
  <text x="315" y="305" font-family="Arial" font-size="12">FIRE, WATER, ELECTRIC...</text>
  
  <rect x="480" y="230" width="180" height="70" fill="#E6F2E6" stroke="#006600" stroke-width="2"/>
  <text x="570" y="255" text-anchor="middle" font-weight="bold" font-family="Arial">«enumeration»</text>
  <text x="570" y="275" text-anchor="middle" font-weight="bold" font-family="Arial">MoveCategory</text>
  <line x1="480" y1="285" x2="660" y2="285" stroke="#006600" stroke-width="1"/>
  <text x="485" y="305" font-family="Arial" font-size="12">PHYSICAL, SPECIAL, STATUS</text>
  
  <rect x="680" y="230" width="100" height="70" fill="#E6F2E6" stroke="#006600" stroke-width="2"/>
  <text x="730" y="255" text-anchor="middle" font-weight="bold" font-family="Arial">«enumeration»</text>
  <text x="730" y="275" text-anchor="middle" font-weight="bold" font-family="Arial">StatType</text>
  <line x1="680" y1="285" x2="780" y2="285" stroke="#006600" stroke-width="1"/>
  <text x="685" y="305" font-family="Arial" font-size="12">HP, ATK, DEF...</text>
  
  <!-- Clases abstractas -->
  <rect x="80" y="370" width="200" height="220" fill="#FFF7E8" stroke="#CC7A00" stroke-width="2"/>
  <text x="180" y="400" text-anchor="middle" font-weight="bold" font-style="italic" font-family="Arial">AbstractPokemon</text>
  <line x1="80" y1="410" x2="280" y2="410" stroke="#CC7A00" stroke-width="1"/>
  <text x="85" y="430" font-family="Arial" font-size="12"># id: int</text>
  <text x="85" y="445" font-family="Arial" font-size="12"># name: String</text>
  <text x="85" y="460" font-family="Arial" font-size="12"># primaryType: Type</text>
  <text x="85" y="475" font-family="Arial" font-size="12"># secondaryType: Type</text>
  <text x="85" y="490" font-family="Arial" font-size="12"># stats: PokemonStats</text>
  <text x="85" y="505" font-family="Arial" font-size="12"># currentHp: int</text>
  <text x="85" y="520" font-family="Arial" font-size="12"># statusEffects: List&lt;StatusEffect&gt;</text>
  <text x="85" y="535" font-family="Arial" font-size="12"># moves: List&lt;Move&gt;</text>
  <line x1="80" y1="545" x2="280" y2="545" stroke="#CC7A00" stroke-width="1"/>
  <text x="85" y="565" font-family="Arial" font-size="12">+ takeDamage(damage: int): void</text>
  <text x="85" y="580" font-family="Arial" font-size="12">+ abstract applyPassiveEffect(): void</text>
  
  <rect x="400" y="370" width="200" height="220" fill="#FFF7E8" stroke="#CC7A00" stroke-width="2"/>
  <text x="500" y="400" text-anchor="middle" font-weight="bold" font-style="italic" font-family="Arial">AbstractMove</text>
  <line x1="400" y1="410" x2="600" y2="410" stroke="#CC7A00" stroke-width="1"/>
  <text x="405" y="430" font-family="Arial" font-size="12"># name: String</text>
  <text x="405" y="445" font-family="Arial" font-size="12"># type: Type</text>
  <text x="405" y="460" font-family="Arial" font-size="12"># power: int</text>
  <text x="405" y="475" font-family="Arial" font-size="12"># accuracy: int</text>
  <text x="405" y="490" font-family="Arial" font-size="12"># maxPp: int</text>
  <text x="405" y="505" font-family="Arial" font-size="12"># currentPp: int</text>
  <text x="405" y="520" font-family="Arial" font-size="12"># category: MoveCategory</text>
  <text x="405" y="535" font-family="Arial" font-size="12"># description: String</text>
  <line x1="400" y1="545" x2="600" y2="545" stroke="#CC7A00" stroke-width="1"/>
  <text x="405" y="565" font-family="Arial" font-size="12">+ canUse(): boolean</text>
  <text x="405" y="580" font-family="Arial" font-size="12"># abstract calculateDamage(...): int</text>
  
  <rect x="720" y="370" width="200" height="220" fill="#FFF7E8" stroke="#CC7A00" stroke-width="2"/>
  <text x="820" y="400" text-anchor="middle" font-weight="bold" font-style="italic" font-family="Arial">AbstractBattleSystem</text>
  <line x1="720" y1="410" x2="920" y2="410" stroke="#CC7A00" stroke-width="1"/>
  <text x="725" y="430" font-family="Arial" font-size="12"># turnCounter: int</text>
  <text x="725" y="445" font-family="Arial" font-size="12"># playerTrainer: Trainer</text>
  <text x="725" y="460" font-family="Arial" font-size="12"># cpuTrainer: Trainer</text>
  <text x="725" y="475" font-family="Arial" font-size="12"># activePokemonPlayer: IBattleable</text>
  <text x="725" y="490" font-family="Arial" font-size="12"># activePokemonCpu: IBattleable</text>
  <text x="725" y="505" font-family="Arial" font-size="12"># battleState: BattleState</text>
  <text x="725" y="520" font-family="Arial" font-size="12"># typeResolver: ITypeResolver</text>
  <text x="725" y="535" font-family="Arial" font-size="12"># battleLog: BattleLog</text>
  <line x1="720" y1="545" x2="920" y2="545" stroke="#CC7A00" stroke-width="1"/>
  <text x="725" y="565" font-family="Arial" font-size="12">+ startBattle(...): void</text>
  <text x="725" y="580" font-family="Arial" font-size="12"># abstract applyWeatherEffects(): void</text>
  
  <!-- Clases concretas - fila 1 -->
  <rect x="80" y="640" width="200" height="180" fill="#F0F0F0" stroke="#333333" stroke-width="2"/>
  <text x="180" y="670" text-anchor="middle" font-weight="bold" font-family="Arial">LegendaryPokemon</text>
  <line x1="80" y1="680" x2="280" y2="680" stroke="#333333" stroke-width="1"/>
  <text x="85" y="700" font-family="Arial" font-size="12">- specialAbility: IAbility</text>
  <text x="85" y="715" font-family="Arial" font-size="12">- signatureMove: Move</text>
  <text x="85" y="730" font-family="Arial" font-size="12">- tier: LegendaryTier</text>
  <text x="85" y="745" font-family="Arial" font-size="12">- description: String</text>
  <line x1="80" y1="755" x2="280" y2="755" stroke="#333333" stroke-width="1"/>
  <text x="85" y="775" font-family="Arial" font-size="12">+ applyPassiveEffect(): void</text>
  <text x="85" y="790" font-family="Arial" font-size="12">+ selectMove(...): Move</text>
  <text x="85" y="805" font-family="Arial" font-size="12">+ useSignatureMove(...): void</text>
  
  <rect x="310" y="640" width="160" height="180" fill="#F0F0F0" stroke="#333333" stroke-width="2"/>
  <text x="390" y="670" text-anchor="middle" font-weight="bold" font-family="Arial">PhysicalMove</text>
  <line x1="310" y1="680" x2="470" y2="680" stroke="#333333" stroke-width="1"/>
  <text x="315" y="700" font-family="Arial" font-size="12">- contactMove: boolean</text>
  <text x="315" y="715" font-family="Arial" font-size="12">- criticalRate: int</text>
  <text x="315" y="730" font-family="Arial" font-size="12">- priority: int</text>
  <line x1="310" y1="740" x2="470" y2="740" stroke="#333333" stroke-width="1"/>
  <text x="315" y="760" font-family="Arial" font-size="12">+ execute(...): int</text>
  <text x="315" y="775" font-family="Arial" font-size="12">+ calculateDamage(...): int</text>
  <text x="315" y="790" font-family="Arial" font-size="12">+ applyCritical(...): int</text>
  
  <rect x="530" y="640" width="160" height="180" fill="#F0F0F0" stroke="#333333" stroke-width="2"/>
  <text x="610" y="670" text-anchor="middle" font-weight="bold" font-family="Arial">SpecialMove</text>
  <line x1="530" y1="680" x2="690" y2="680" stroke="#333333" stroke-width="1"/>
  <text x="535" y="700" font-family="Arial" font-size="12">- element: Type</text>
  <text x="535" y="715" font-family="Arial" font-size="12">- criticalRate: int</text>
  <text x="535" y="730" font-family="Arial" font-size="12">- priority: int</text>
  <line x1="530" y1="740" x2="690" y2="740" stroke="#333333" stroke-width="1"/>
  <text x="535" y="760" font-family="Arial" font-size="12">+ execute(...): int</text>
  <text x="535" y="775" font-family="Arial" font-size="12">+ calculateDamage(...): int</text>
  <text x="535" y="790" font-family="Arial" font-size="12">+ applyCritical(...): int</text>
  
  <!-- Clases concretas - fila 2 -->
  <rect x="750" y="640" width="160" height="180" fill="#F0F0F0" stroke="#333333" stroke-width="2"/>
  <text x="830" y="670" text-anchor="middle" font-weight="bold" font-family="Arial">StatusMove</text>
  <line x1="750" y1="680" x2="910" y2="680" stroke="#333333" stroke-width="1"/>
  <text x="755" y="700" font-family="Arial" font-size="12">- statusEffect: StatusEffect</text>
  <text x="755" y="715" font-family="Arial" font-size="12">- successRate: int</text>
  <text x="755" y="730" font-family="Arial" font-size="12">- targetType: TargetType</text>
  <line x1="750" y1="740" x2="910" y2="740" stroke="#333333" stroke-width="1"/>
  <text x="755" y="760" font-family="Arial" font-size="12">+ applyStatus(...): boolean</text>
  <text x="755" y="775" font-family="Arial" font-size="12">+ calculateDamage(...): int</text>
  <text x="755" y="790" font-family="Arial" font-size="12">+ execute(...): int</text>
  
  <rect x="80" y="850" width="200" height="120" fill="#F0F0F0" stroke="#333333" stroke-width="2"/>
  <text x="180" y="880" text-anchor="middle" font-weight="bold" font-family="Arial">PokemonStats</text>
  <line x1="80" y1="890" x2="280" y2="890" stroke="#333333" stroke-width="1"/>
  <text x="85" y="910" font-family="Arial" font-size="12">- baseStats: Map&lt;StatType, Integer&gt;</text>
  <text x="85" y="925" font-family="Arial" font-size="12">- modifiers: Map&lt;StatType, Integer&gt;</text>
  <line x1="80" y1="935" x2="280" y2="935" stroke="#333333" stroke-width="1"/>
  <text x="85" y="955" font-family="Arial" font-size="12">+ getEffectiveStat(type: StatType): int</text>
  
  <rect x="310" y="850" width="200" height="120" fill="#F0F0F0" stroke="#333333" stroke-width="2"/>
  <text x="410" y="880" text-anchor="middle" font-weight="bold" font-family="Arial">ClassicBattleSystem</text>
  <line x1="310" y1="890" x2="510" y2="890" stroke="#333333" stroke-width="1"/>
  <text x="315" y="910" font-family="Arial" font-size="12">- weatherEffect: WeatherEffect</text>
  <text x="315" y="925" font-family="Arial" font-size="12">- field: BattleField</text>
  <line x1="310" y1="935" x2="510" y2="935" stroke="#333333" stroke-width="1"/>
  <text x="315" y="955" font-family="Arial" font-size="12">+ applyWeatherEffects(): void</text>
  
  <rect x="530" y="850" width="200" height="120" fill="#F0F0F0" stroke="#333333" stroke-width="2"/>
  <text x="630" y="880" text-anchor="middle" font-weight="bold" font-family="Arial">TypeEffectivenessResolver</text>
  <line x1="530" y1="890" x2="730" y2="890" stroke="#333333" stroke-width="1"/>
  <text x="535" y="910" font-family="Arial" font-size="12">- effectivenessMatrix: Map&lt;Type, Map&lt;Type, Double&gt;&gt;</text>
  <line x1="530" y1="920" x2="730" y2="920" stroke="#333333" stroke-width="1"/>
  <text x="535" y="940" font-family="Arial" font-size="12">+ getEffectiveness(atk: Type, def: Type): double</text>
  <text x="535" y="955" font-family="Arial" font-size="12">+ getMultiplier(atk: Type, def1: Type, def2: Type): double</text>
  
  <rect x="750" y="850" width="180" height="120" fill="#F0F0F0" stroke="#333333" stroke-width="2"/>
  <text x="840" y="880" text-anchor="middle" font-weight="bold" font-family="Arial">BattleLog</text>
  <line x1="750" y1="890" x2="930" y2="890" stroke="#333333" stroke-width="1"/>
  <text x="755" y="910" font-family="Arial" font-size="12">- entries: List&lt;LogEntry&gt;</text>
  <line x1="750" y1="920" x2="930" y2="920" stroke="#333333" stroke-width="1"/>
  <text x="755" y="940" font-family="Arial" font-size="12">+ addEntry(entry: LogEntry): void</text>
  <text x="755" y="955" font-family="Arial" font-size="12">+ getFormattedLog(): String</text>
  
  <!-- Nueva posición para StatMove -->
  <rect x="940" y="640" width="130" height="180" fill="#F0F0F0" stroke="#333333" stroke-width="2"/>
  <text x="1005" y="670" text-anchor="middle" font-weight="bold" font-family="Arial">StatMove</text>
  <line x1="940" y1="680" x2="1070" y2="680" stroke="#333333" stroke-width="1"/>
  <text x="945" y="700" font-family="Arial" font-size="12">- statChange: StatChange</text>
  <text x="945" y="715" font-family="Arial" font-size="12">- stages: int</text>
  <text x="945" y="730" font-family="Arial" font-size="12">- selfTarget: boolean</text>
  <line x1="940" y1="740" x2="1070" y2="740" stroke="#333333" stroke-width="1"/>
  <text x="945" y="760" font-family="Arial" font-size="12">+ applyStat(...): void</text>
  <text x="945" y="775" font-family="Arial" font-size="12">+ calculateDamage(...): int</text>
  <text x="945" y="790" font-family="Arial" font-size="12">+ execute(...): int</text>
  
  <!-- Relaciones -->
  <!-- IBattleable -> AbstractPokemon -->
  <line x1="180" y1="200" x2="180" y2="370" stroke="#0066CC" stroke-width="1.5" stroke-dasharray="5,3"/>
  <polygon points="180,370 175,360 185,360" fill="#0066CC"/>
  
  <!-- IMove -> AbstractMove -->
  <line x1="500" y1="200" x2="500" y2="370" stroke="#0066CC" stroke-width="1.5" stroke-dasharray="5,3"/>
  <polygon points="500,370 495,360 505,360" fill="#0066CC"/>
  
  <!-- IBattleSystem -> AbstractBattleSystem -->
  <line x1="860" y1="200" x2="820" y2="370" stroke="#0066CC" stroke-width="1.5" stroke-dasharray="5,3"/>
  <polygon points="820,370 815,360 825,365" fill="#0066CC"/>
  
  <!-- AbstractPokemon -> LegendaryPokemon -->
  <line x1="180" y1="590" x2="180" y2="640" stroke="#CC7A00" stroke-width="1.5"/>
  <polygon points="180,640 175,630 185,630" fill="#CC7A00"/>
  
  <!-- AbstractMove -> PhysicalMove -->
  <line x1="440" y1="590" x2="390" y2="640" stroke="#CC7A00" stroke-width="1.5"/>
  <polygon points="390,640 390,630 400,635" fill="#CC7A00"/>
  
  <!-- AbstractMove -> SpecialMove -->
  <line x1="510" y1="590" x2="550" y2="640" stroke="#CC7A00" stroke-width="1.5"/>
  <polygon points="550,640 540,635 545,630" fill="#CC7A00"/>
  
  <!-- AbstractMove -> StatusMove -->
  <line x1="550" y1="500" x2="750" y2="650" stroke="#CC7A00" stroke-width="1.5"/>
  <polygon points="750,650 740,645 745,640" fill="#CC7A00"/>
  
  <!-- AbstractMove -> StatMove -->
  <line x1="600" y1="480" x2="940" y2="650" stroke="#CC7A00" stroke-width="1.5"/>
  <polygon points="940,650 930,645 935,640" fill="#CC7A00"/>
  
  <!-- AbstractBattleSystem -> ClassicBattleSystem -->
  <line x1="800" y1="590" x2="410" y2="850" stroke="#CC7A00" stroke-width="1.5"/>
  <polygon points="410,850 415,840 420,845" fill="#CC7A00"/>
  
  <!-- ITypeResolver -> TypeEffectivenessResolver -->
  <line x1="900" y1="340" x2="630" y2="850" stroke="#0066CC" stroke-width="1.5" stroke-dasharray="5,3"/>
  <polygon points="630,850 635,840 625,840" fill="#0066CC"/>
  
  <!-- AbstractPokemon usa PokemonStats -->
  <line x1="150" y1="590" x2="150" y2="850" stroke="#333333" stroke-width="1"/>
  <polygon points="150,850 145,840 155,840" fill="#000000"/>
  
  <!-- AbstractBattleSystem usa TypeEffectivenessResolver -->
  <line x1="790" y1="590" x2="630" y2="850" stroke="#333333" stroke-width="1"/>
  <polygon points="630,850 625,840 635,840" fill="#000000"/>
  
  <!-- AbstractBattleSystem usa BattleLog -->
  <line x1="850" y1="590" x2="840" y2="850" stroke="#333333" stroke-width="1"/>
  <polygon points="840,850 835,840 845,840" fill="#000000"/>
  
  <!-- LegendaryPokemon usa IAbility -->
  <line x1="150" y1="640" x2="150" y2="340" stroke="#333333" stroke-width="1"/>
  <polygon points="150,340 145,350 155,350" fill="#000000"/>
  
  <!-- Leyenda -->
  <rect x="940" y="400" width="240" height="160" fill="#FFFFFF" stroke="#000000" stroke-width="1"/>
  <text x="1060" y="430" text-anchor="middle" font-weight="bold" font-family="Arial">Leyenda</text>
  <line x1="950" y1="445" x2="980" y2="445" stroke="#0066CC" stroke-width="1.5" stroke-dasharray="5,3"/>
  <text x="985" y="450" font-family="Arial" font-size="12">Implementa interfaz</text>
  <line x1="950" y1="465" x2="980" y2="465" stroke="#CC7A00" stroke-width="1.5"/>
  <text x="985" y="470" font-family="Arial" font-size="12">Extiende clase abstracta</text>
  <line x1="950" y1="485" x2="980" y2="485" stroke="#333333" stroke-width="1"/>
  <polygon points="980,485 975,482 975,488" fill="#000000"/>
  <text x="985" y="490" font-family="Arial" font-size="12">Asociación (usa)</text>
  <rect x="950" y="500" x2="980" y2="500" width="20" height="20" fill="#E6F2E6" stroke="#006600" stroke-width="1.5"/>
  <text x="985" y="515" font-family="Arial" font-size="12">Enumeración</text>
  <rect x="950" y="525" width="20" height="20" fill="#E8F4FF" stroke="#0066CC" stroke-width="1.5"/>
  <text x="985" y="540" font-family="Arial" font-size="12">Interfaz</text>
</svg>
